<svg id="visual" viewBox="0 0 960 300" width="960" height="300" xmlns="http://www.w3.org/2000/svg" xmlns:xlink="http://www.w3.org/1999/xlink" version="1.1"><rect x="0" y="0" width="960" height="300" fill="#000"></rect><path d="M0 204L22.8 203.2C45.7 202.3 91.3 200.7 137 200C182.7 199.3 228.3 199.7 274 201.5C319.7 203.3 365.3 206.7 411.2 202.8C457 199 503 188 548.8 188C594.7 188 640.3 199 686 204.5C731.7 210 777.3 210 823 207.2C868.7 204.3 914.3 198.7 937.2 195.8L960 193L960 301L937.2 301C914.3 301 868.7 301 823 301C777.3 301 731.7 301 686 301C640.3 301 594.7 301 548.8 301C503 301 457 301 411.2 301C365.3 301 319.7 301 274 301C228.3 301 182.7 301 137 301C91.3 301 45.7 301 22.8 301L0 301Z" fill="#c22828"></path><path d="M0 207L22.8 205.5C45.7 204 91.3 201 137 199.5C182.7 198 228.3 198 274 202.2C319.7 206.3 365.3 214.7 411.2 217.3C457 220 503 217 548.8 215.5C594.7 214 640.3 214 686 218.2C731.7 222.3 777.3 230.7 823 231.7C868.7 232.7 914.3 226.3 937.2 223.2L960 220L960 301L937.2 301C914.3 301 868.7 301 823 301C777.3 301 731.7 301 686 301C640.3 301 594.7 301 548.8 301C503 301 457 301 411.2 301C365.3 301 319.7 301 274 301C228.3 301 182.7 301 137 301C91.3 301 45.7 301 22.8 301L0 301Z" fill="#d13629"></path><path d="M0 237L22.8 234C45.7 231 91.3 225 137 221.8C182.7 218.7 228.3 218.3 274 222.2C319.7 226 365.3 234 411.2 235.5C457 237 503 232 548.8 228C594.7 224 640.3 221 686 225.7C731.7 230.3 777.3 242.7 823 245.2C868.7 247.7 914.3 240.3 937.2 236.7L960 233L960 301L937.2 301C914.3 301 868.7 301 823 301C777.3 301 731.7 301 686 301C640.3 301 594.7 301 548.8 301C503 301 457 301 411.2 301C365.3 301 319.7 301 274 301C228.3 301 182.7 301 137 301C91.3 301 45.7 301 22.8 301L0 301Z" fill="#e0442a"></path><path d="M0 257L22.8 256.7C45.7 256.3 91.3 255.7 137 257.2C182.7 258.7 228.3 262.3 274 264.3C319.7 266.3 365.3 266.7 411.2 263.8C457 261 503 255 548.8 252C594.7 249 640.3 249 686 248.5C731.7 248 777.3 247 823 250.3C868.7 253.7 914.3 261.3 937.2 265.2L960 269L960 301L937.2 301C914.3 301 868.7 301 823 301C777.3 301 731.7 301 686 301C640.3 301 594.7 301 548.8 301C503 301 457 301 411.2 301C365.3 301 319.7 301 274 301C228.3 301 182.7 301 137 301C91.3 301 45.7 301 22.8 301L0 301Z" fill="#ee512b"></path><path d="M0 283L22.8 282.7C45.7 282.3 91.3 281.7 137 282C182.7 282.3 228.3 283.7 274 282.2C319.7 280.7 365.3 276.3 411.2 276.5C457 276.7 503 281.3 548.8 282C594.7 282.7 640.3 279.3 686 276.2C731.7 273 777.3 270 823 268.5C868.7 267 914.3 267 937.2 267L960 267L960 301L937.2 301C914.3 301 868.7 301 823 301C777.3 301 731.7 301 686 301C640.3 301 594.7 301 548.8 301C503 301 457 301 411.2 301C365.3 301 319.7 301 274 301C228.3 301 182.7 301 137 301C91.3 301 45.7 301 22.8 301L0 301Z" fill="#fc5f2b"></path></svg>