<svg id="visual" viewBox="0 0 960 300" width="960" height="300" xmlns="http://www.w3.org/2000/svg" xmlns:xlink="http://www.w3.org/1999/xlink" version="1.1"><rect x="0" y="0" width="960" height="300" fill="#000"></rect><path d="M0 209L22.8 206.3C45.7 203.7 91.3 198.3 137 198.7C182.7 199 228.3 205 274 201.8C319.7 198.7 365.3 186.3 411.2 187.7C457 189 503 204 548.8 207.8C594.7 211.7 640.3 204.3 686 202.2C731.7 200 777.3 203 823 203.7C868.7 204.3 914.3 202.7 937.2 201.8L960 201L960 301L937.2 301C914.3 301 868.7 301 823 301C777.3 301 731.7 301 686 301C640.3 301 594.7 301 548.8 301C503 301 457 301 411.2 301C365.3 301 319.7 301 274 301C228.3 301 182.7 301 137 301C91.3 301 45.7 301 22.8 301L0 301Z" fill="#c22828"></path><path d="M0 200L22.8 204.7C45.7 209.3 91.3 218.7 137 222.7C182.7 226.7 228.3 225.3 274 222.5C319.7 219.7 365.3 215.3 411.2 217.7C457 220 503 229 548.8 226.7C594.7 224.3 640.3 210.7 686 207.5C731.7 204.3 777.3 211.7 823 211.5C868.7 211.3 914.3 203.7 937.2 199.8L960 196L960 301L937.2 301C914.3 301 868.7 301 823 301C777.3 301 731.7 301 686 301C640.3 301 594.7 301 548.8 301C503 301 457 301 411.2 301C365.3 301 319.7 301 274 301C228.3 301 182.7 301 137 301C91.3 301 45.7 301 22.8 301L0 301Z" fill="#d13629"></path><path d="M0 253L22.8 251.7C45.7 250.3 91.3 247.7 137 243.3C182.7 239 228.3 233 274 230.2C319.7 227.3 365.3 227.7 411.2 230.8C457 234 503 240 548.8 241.8C594.7 243.7 640.3 241.3 686 236.7C731.7 232 777.3 225 823 221.8C868.7 218.7 914.3 219.3 937.2 219.7L960 220L960 301L937.2 301C914.3 301 868.7 301 823 301C777.3 301 731.7 301 686 301C640.3 301 594.7 301 548.8 301C503 301 457 301 411.2 301C365.3 301 319.7 301 274 301C228.3 301 182.7 301 137 301C91.3 301 45.7 301 22.8 301L0 301Z" fill="#e0442a"></path><path d="M0 241L22.8 245.7C45.7 250.3 91.3 259.7 137 260.5C182.7 261.3 228.3 253.7 274 253.7C319.7 253.7 365.3 261.3 411.2 260.3C457 259.3 503 249.7 548.8 245.3C594.7 241 640.3 242 686 245.7C731.7 249.3 777.3 255.7 823 258.5C868.7 261.3 914.3 260.7 937.2 260.3L960 260L960 301L937.2 301C914.3 301 868.7 301 823 301C777.3 301 731.7 301 686 301C640.3 301 594.7 301 548.8 301C503 301 457 301 411.2 301C365.3 301 319.7 301 274 301C228.3 301 182.7 301 137 301C91.3 301 45.7 301 22.8 301L0 301Z" fill="#ee512b"></path><path d="M0 271L22.8 271C45.7 271 91.3 271 137 271.5C182.7 272 228.3 273 274 273.3C319.7 273.7 365.3 273.3 411.2 273.3C457 273.3 503 273.7 548.8 274.2C594.7 274.7 640.3 275.3 686 276.7C731.7 278 777.3 280 823 281.3C868.7 282.7 914.3 283.3 937.2 283.7L960 284L960 301L937.2 301C914.3 301 868.7 301 823 301C777.3 301 731.7 301 686 301C640.3 301 594.7 301 548.8 301C503 301 457 301 411.2 301C365.3 301 319.7 301 274 301C228.3 301 182.7 301 137 301C91.3 301 45.7 301 22.8 301L0 301Z" fill="#fc5f2b"></path></svg>