<svg id="visual" viewBox="0 0 960 300" width="960" height="300" xmlns="http://www.w3.org/2000/svg" xmlns:xlink="http://www.w3.org/1999/xlink" version="1.1"><rect x="0" y="0" width="960" height="300" fill="#000"></rect><path d="M0 81L22.8 80.3C45.7 79.7 91.3 78.3 137 80C182.7 81.7 228.3 86.3 274 86C319.7 85.7 365.3 80.3 411.2 77.8C457 75.3 503 75.7 548.8 80.3C594.7 85 640.3 94 686 99.5C731.7 105 777.3 107 823 109.2C868.7 111.3 914.3 113.7 937.2 114.8L960 116L960 0L937.2 0C914.3 0 868.7 0 823 0C777.3 0 731.7 0 686 0C640.3 0 594.7 0 548.8 0C503 0 457 0 411.2 0C365.3 0 319.7 0 274 0C228.3 0 182.7 0 137 0C91.3 0 45.7 0 22.8 0L0 0Z" fill="#c22828"></path><path d="M0 69L22.8 72C45.7 75 91.3 81 137 83.8C182.7 86.7 228.3 86.3 274 88.3C319.7 90.3 365.3 94.7 411.2 94C457 93.3 503 87.7 548.8 83.5C594.7 79.3 640.3 76.7 686 75.2C731.7 73.7 777.3 73.3 823 75C868.7 76.7 914.3 80.3 937.2 82.2L960 84L960 0L937.2 0C914.3 0 868.7 0 823 0C777.3 0 731.7 0 686 0C640.3 0 594.7 0 548.8 0C503 0 457 0 411.2 0C365.3 0 319.7 0 274 0C228.3 0 182.7 0 137 0C91.3 0 45.7 0 22.8 0L0 0Z" fill="#d13629"></path><path d="M0 48L22.8 47.7C45.7 47.3 91.3 46.7 137 46.7C182.7 46.7 228.3 47.3 274 48.8C319.7 50.3 365.3 52.7 411.2 55.7C457 58.7 503 62.3 548.8 62.5C594.7 62.7 640.3 59.3 686 56C731.7 52.7 777.3 49.3 823 48.5C868.7 47.7 914.3 49.3 937.2 50.2L960 51L960 0L937.2 0C914.3 0 868.7 0 823 0C777.3 0 731.7 0 686 0C640.3 0 594.7 0 548.8 0C503 0 457 0 411.2 0C365.3 0 319.7 0 274 0C228.3 0 182.7 0 137 0C91.3 0 45.7 0 22.8 0L0 0Z" fill="#e0442a"></path><path d="M0 28L22.8 32.8C45.7 37.7 91.3 47.3 137 51.7C182.7 56 228.3 55 274 53C319.7 51 365.3 48 411.2 43.5C457 39 503 33 548.8 34.5C594.7 36 640.3 45 686 46.3C731.7 47.7 777.3 41.3 823 40.5C868.7 39.7 914.3 44.3 937.2 46.7L960 49L960 0L937.2 0C914.3 0 868.7 0 823 0C777.3 0 731.7 0 686 0C640.3 0 594.7 0 548.8 0C503 0 457 0 411.2 0C365.3 0 319.7 0 274 0C228.3 0 182.7 0 137 0C91.3 0 45.7 0 22.8 0L0 0Z" fill="#ee512b"></path><path d="M0 21L22.8 21.2C45.7 21.3 91.3 21.7 137 21.8C182.7 22 228.3 22 274 20.5C319.7 19 365.3 16 411.2 15.5C457 15 503 17 548.8 20.7C594.7 24.3 640.3 29.7 686 30.2C731.7 30.7 777.3 26.3 823 22.7C868.7 19 914.3 16 937.2 14.5L960 13L960 0L937.2 0C914.3 0 868.7 0 823 0C777.3 0 731.7 0 686 0C640.3 0 594.7 0 548.8 0C503 0 457 0 411.2 0C365.3 0 319.7 0 274 0C228.3 0 182.7 0 137 0C91.3 0 45.7 0 22.8 0L0 0Z" fill="#fc5f2b"></path></svg>