<svg id="visual" viewBox="0 0 960 300" width="960" height="300" xmlns="http://www.w3.org/2000/svg" xmlns:xlink="http://www.w3.org/1999/xlink" version="1.1"><rect x="0" y="0" width="960" height="300" fill="#000"></rect><path d="M0 118L14.5 117C29 116 58 114 87.2 114.5C116.3 115 145.7 118 174.8 115C204 112 233 103 262 104.8C291 106.7 320 119.3 349 122.8C378 126.3 407 120.7 436.2 116.5C465.3 112.3 494.7 109.7 523.8 110.2C553 110.7 582 114.3 611 115C640 115.7 669 113.3 698 116.7C727 120 756 129 785.2 131.7C814.3 134.3 843.7 130.7 872.8 126.3C902 122 931 117 945.5 114.5L960 112L960 0L945.5 0C931 0 902 0 872.8 0C843.7 0 814.3 0 785.2 0C756 0 727 0 698 0C669 0 640 0 611 0C582 0 553 0 523.8 0C494.7 0 465.3 0 436.2 0C407 0 378 0 349 0C320 0 291 0 262 0C233 0 204 0 174.8 0C145.7 0 116.3 0 87.2 0C58 0 29 0 14.5 0L0 0Z" fill="#fc5f2b"></path><path d="M0 119L14.5 116.3C29 113.7 58 108.3 87.2 105.5C116.3 102.7 145.7 102.3 174.8 99.7C204 97 233 92 262 90C291 88 320 89 349 89.5C378 90 407 90 436.2 94.2C465.3 98.3 494.7 106.7 523.8 111.3C553 116 582 117 611 117C640 117 669 116 698 109.7C727 103.3 756 91.7 785.2 86.3C814.3 81 843.7 82 872.8 86.2C902 90.3 931 97.7 945.5 101.3L960 105L960 0L945.5 0C931 0 902 0 872.8 0C843.7 0 814.3 0 785.2 0C756 0 727 0 698 0C669 0 640 0 611 0C582 0 553 0 523.8 0C494.7 0 465.3 0 436.2 0C407 0 378 0 349 0C320 0 291 0 262 0C233 0 204 0 174.8 0C145.7 0 116.3 0 87.2 0C58 0 29 0 14.5 0L0 0Z" fill="#d43f1a"></path><path d="M0 82L14.5 79.3C29 76.7 58 71.3 87.2 68.2C116.3 65 145.7 64 174.8 66.3C204 68.7 233 74.3 262 76C291 77.7 320 75.3 349 75.2C378 75 407 77 436.2 76.3C465.3 75.7 494.7 72.3 523.8 71C553 69.7 582 70.3 611 73.7C640 77 669 83 698 85C727 87 756 85 785.2 84.5C814.3 84 843.7 85 872.8 86.3C902 87.7 931 89.3 945.5 90.2L960 91L960 0L945.5 0C931 0 902 0 872.8 0C843.7 0 814.3 0 785.2 0C756 0 727 0 698 0C669 0 640 0 611 0C582 0 553 0 523.8 0C494.7 0 465.3 0 436.2 0C407 0 378 0 349 0C320 0 291 0 262 0C233 0 204 0 174.8 0C145.7 0 116.3 0 87.2 0C58 0 29 0 14.5 0L0 0Z" fill="#ad1c08"></path><path d="M0 53L14.5 56.3C29 59.7 58 66.3 87.2 70.2C116.3 74 145.7 75 174.8 71.8C204 68.7 233 61.3 262 58.5C291 55.7 320 57.3 349 61.2C378 65 407 71 436.2 73.5C465.3 76 494.7 75 523.8 69.5C553 64 582 54 611 54.2C640 54.3 669 64.7 698 64.8C727 65 756 55 785.2 50.7C814.3 46.3 843.7 47.7 872.8 52.8C902 58 931 67 945.5 71.5L960 76L960 0L945.5 0C931 0 902 0 872.8 0C843.7 0 814.3 0 785.2 0C756 0 727 0 698 0C669 0 640 0 611 0C582 0 553 0 523.8 0C494.7 0 465.3 0 436.2 0C407 0 378 0 349 0C320 0 291 0 262 0C233 0 204 0 174.8 0C145.7 0 116.3 0 87.2 0C58 0 29 0 14.5 0L0 0Z" fill="#870000"></path><path d="M0 54L14.5 54.3C29 54.7 58 55.3 87.2 51.8C116.3 48.3 145.7 40.7 174.8 38.3C204 36 233 39 262 41.5C291 44 320 46 349 46.5C378 47 407 46 436.2 44.5C465.3 43 494.7 41 523.8 42.3C553 43.7 582 48.3 611 48C640 47.7 669 42.3 698 39C727 35.7 756 34.3 785.2 34.2C814.3 34 843.7 35 872.8 35.5C902 36 931 36 945.5 36L960 36L960 0L945.5 0C931 0 902 0 872.8 0C843.7 0 814.3 0 785.2 0C756 0 727 0 698 0C669 0 640 0 611 0C582 0 553 0 523.8 0C494.7 0 465.3 0 436.2 0C407 0 378 0 349 0C320 0 291 0 262 0C233 0 204 0 174.8 0C145.7 0 116.3 0 87.2 0C58 0 29 0 14.5 0L0 0Z" fill="#630000"></path><path d="M0 16L14.5 16.7C29 17.3 58 18.7 87.2 19C116.3 19.3 145.7 18.7 174.8 20.8C204 23 233 28 262 28.7C291 29.3 320 25.7 349 23.7C378 21.7 407 21.3 436.2 20.5C465.3 19.7 494.7 18.3 523.8 20C553 21.7 582 26.3 611 27.5C640 28.7 669 26.3 698 25.5C727 24.7 756 25.3 785.2 25C814.3 24.7 843.7 23.3 872.8 23.8C902 24.3 931 26.7 945.5 27.8L960 29L960 0L945.5 0C931 0 902 0 872.8 0C843.7 0 814.3 0 785.2 0C756 0 727 0 698 0C669 0 640 0 611 0C582 0 553 0 523.8 0C494.7 0 465.3 0 436.2 0C407 0 378 0 349 0C320 0 291 0 262 0C233 0 204 0 174.8 0C145.7 0 116.3 0 87.2 0C58 0 29 0 14.5 0L0 0Z" fill="#000000"></path></svg>