<svg id="visual" viewBox="0 0 960 100" width="960" height="100" xmlns="http://www.w3.org/2000/svg" xmlns:xlink="http://www.w3.org/1999/xlink" version="1.1"><rect x="0" y="0" width="960" height="100" fill="#000"></rect><path d="M0 44L11.5 44.5C23 45 46 46 68.8 47.7C91.7 49.3 114.3 51.7 137.2 51.3C160 51 183 48 205.8 48C228.7 48 251.3 51 274.2 49.8C297 48.7 320 43.3 342.8 43.8C365.7 44.3 388.3 50.7 411.2 50.5C434 50.3 457 43.7 480 41.8C503 40 526 43 548.8 41.8C571.7 40.7 594.3 35.3 617.2 34C640 32.7 663 35.3 685.8 38.5C708.7 41.7 731.3 45.3 754.2 44.8C777 44.3 800 39.7 822.8 42.2C845.7 44.7 868.3 54.3 891.2 53.8C914 53.3 937 42.7 948.5 37.3L960 32L960 0L948.5 0C937 0 914 0 891.2 0C868.3 0 845.7 0 822.8 0C800 0 777 0 754.2 0C731.3 0 708.7 0 685.8 0C663 0 640 0 617.2 0C594.3 0 571.7 0 548.8 0C526 0 503 0 480 0C457 0 434 0 411.2 0C388.3 0 365.7 0 342.8 0C320 0 297 0 274.2 0C251.3 0 228.7 0 205.8 0C183 0 160 0 137.2 0C114.3 0 91.7 0 68.8 0C46 0 23 0 11.5 0L0 0Z" fill="#c40404"></path><path d="M0 25L11.5 25.5C23 26 46 27 68.8 26.7C91.7 26.3 114.3 24.7 137.2 28.7C160 32.7 183 42.3 205.8 44.8C228.7 47.3 251.3 42.7 274.2 38.8C297 35 320 32 342.8 34C365.7 36 388.3 43 411.2 45C434 47 457 44 480 44.8C503 45.7 526 50.3 548.8 50.7C571.7 51 594.3 47 617.2 45.7C640 44.3 663 45.7 685.8 43.5C708.7 41.3 731.3 35.7 754.2 37.3C777 39 800 48 822.8 49.3C845.7 50.7 868.3 44.3 891.2 44.2C914 44 937 50 948.5 53L960 56L960 0L948.5 0C937 0 914 0 891.2 0C868.3 0 845.7 0 822.8 0C800 0 777 0 754.2 0C731.3 0 708.7 0 685.8 0C663 0 640 0 617.2 0C594.3 0 571.7 0 548.8 0C526 0 503 0 480 0C457 0 434 0 411.2 0C388.3 0 365.7 0 342.8 0C320 0 297 0 274.2 0C251.3 0 228.7 0 205.8 0C183 0 160 0 137.2 0C114.3 0 91.7 0 68.8 0C46 0 23 0 11.5 0L0 0Z" fill="#d2270d"></path><path d="M0 39L11.5 39.8C23 40.7 46 42.3 68.8 41.3C91.7 40.3 114.3 36.7 137.2 34.8C160 33 183 33 205.8 32.5C228.7 32 251.3 31 274.2 28.7C297 26.3 320 22.7 342.8 24.3C365.7 26 388.3 33 411.2 34.8C434 36.7 457 33.3 480 31C503 28.7 526 27.3 548.8 26.2C571.7 25 594.3 24 617.2 22.3C640 20.7 663 18.3 685.8 17C708.7 15.7 731.3 15.3 754.2 17.5C777 19.7 800 24.3 822.8 27.8C845.7 31.3 868.3 33.7 891.2 35.7C914 37.7 937 39.3 948.5 40.2L960 41L960 0L948.5 0C937 0 914 0 891.2 0C868.3 0 845.7 0 822.8 0C800 0 777 0 754.2 0C731.3 0 708.7 0 685.8 0C663 0 640 0 617.2 0C594.3 0 571.7 0 548.8 0C526 0 503 0 480 0C457 0 434 0 411.2 0C388.3 0 365.7 0 342.8 0C320 0 297 0 274.2 0C251.3 0 228.7 0 205.8 0C183 0 160 0 137.2 0C114.3 0 91.7 0 68.8 0C46 0 23 0 11.5 0L0 0Z" fill="#e03c17"></path><path d="M0 17L11.5 16.7C23 16.3 46 15.7 68.8 17.5C91.7 19.3 114.3 23.7 137.2 25.2C160 26.7 183 25.3 205.8 24.5C228.7 23.7 251.3 23.3 274.2 24C297 24.7 320 26.3 342.8 24.3C365.7 22.3 388.3 16.7 411.2 15C434 13.3 457 15.7 480 17C503 18.3 526 18.7 548.8 18.8C571.7 19 594.3 19 617.2 17.8C640 16.7 663 14.3 685.8 12.7C708.7 11 731.3 10 754.2 12.2C777 14.3 800 19.7 822.8 20.2C845.7 20.7 868.3 16.3 891.2 14.7C914 13 937 14 948.5 14.5L960 15L960 0L948.5 0C937 0 914 0 891.2 0C868.3 0 845.7 0 822.8 0C800 0 777 0 754.2 0C731.3 0 708.7 0 685.8 0C663 0 640 0 617.2 0C594.3 0 571.7 0 548.8 0C526 0 503 0 480 0C457 0 434 0 411.2 0C388.3 0 365.7 0 342.8 0C320 0 297 0 274.2 0C251.3 0 228.7 0 205.8 0C183 0 160 0 137.2 0C114.3 0 91.7 0 68.8 0C46 0 23 0 11.5 0L0 0Z" fill="#ee4e21"></path><path d="M0 17L11.5 15.7C23 14.3 46 11.7 68.8 11.2C91.7 10.7 114.3 12.3 137.2 12.3C160 12.3 183 10.7 205.8 11.3C228.7 12 251.3 15 274.2 14.8C297 14.7 320 11.3 342.8 11.3C365.7 11.3 388.3 14.7 411.2 14.8C434 15 457 12 480 9C503 6 526 3 548.8 2.2C571.7 1.3 594.3 2.7 617.2 6.3C640 10 663 16 685.8 15.3C708.7 14.7 731.3 7.3 754.2 6.3C777 5.3 800 10.7 822.8 11.7C845.7 12.7 868.3 9.3 891.2 9.7C914 10 937 14 948.5 16L960 18L960 0L948.5 0C937 0 914 0 891.2 0C868.3 0 845.7 0 822.8 0C800 0 777 0 754.2 0C731.3 0 708.7 0 685.8 0C663 0 640 0 617.2 0C594.3 0 571.7 0 548.8 0C526 0 503 0 480 0C457 0 434 0 411.2 0C388.3 0 365.7 0 342.8 0C320 0 297 0 274.2 0C251.3 0 228.7 0 205.8 0C183 0 160 0 137.2 0C114.3 0 91.7 0 68.8 0C46 0 23 0 11.5 0L0 0Z" fill="#fc5f2b"></path></svg>